<svg width="145" height="45" viewBox="0 0 145 45" fill="none" xmlns="http://www.w3.org/2000/svg">
<path d="M130.2 0L117.7 4.3L133.2 10.2L127.5 25.6L138.1 19.5L144.9 5.5L130.2 0Z" fill="#1EB06C"/>
<path d="M0 33V10.8H4.3V29.5H14V33H0ZM16.4 14V10.4H20.2V14H16.4ZM20.2 33H16.4V17H20.2V33ZM22.3 17H26.1L28.8 27.9H28.9L31.6 17H35.4L30.8 33H26.8L22.3 17ZM39.6 25.6C39.7 28.9 41.1 30.2 42.9 30.2C44.7 30.2 45.5 29.4 46.5 28.3L49.3 30C47.8 32.3 45.7 33.3 42.6 33.3C38.4 33.3 35.8 30 35.8 25C35.8 20 38.4 16.6 42.8 16.6C47 16.5 49.3 20.1 49.3 24V25.6H39.6ZM45.8 23C45.7 20.8 44.6 19.5 42.7 19.5C40.9 19.5 39.7 20.8 39.6 23H45.8ZM59.6 10.8H67.9C72.4 10.8 75.2 12.3 75.4 16.3C75.4 18.6 74.4 20.4 72 21.4C74.9 22.6 75.9 23.9 75.9 27.3C75.9 30.7 73.5 33.2 67.8 33.2H59.6C59.6 33 59.6 10.8 59.6 10.8ZM63.8 19.6H68.1C70.1 19.6 71.1 18.4 71.1 16.9C71.1 15.4 70.1 14.2 68.1 14.2H63.8C63.8 14.1 63.8 19.6 63.8 19.6ZM63.8 29.6H68.1C70.6 29.6 71.7 28.5 71.7 26.3C71.7 24.1 70.6 23 68.1 23H63.8V29.6ZM79.3 33V10.8H83.1V33H79.3ZM92.7 16.6C97 16.6 99.7 19.9 99.7 24.9C99.7 29.9 97.1 33.2 92.7 33.2C88.4 33.2 85.7 29.9 85.7 24.9C85.7 19.9 88.4 16.6 92.7 16.6ZM92.7 19.7C90.6 19.7 89.6 21.4 89.6 24.9C89.6 28.4 90.6 30.1 92.7 30.1C94.8 30.1 95.8 28.4 95.8 24.9C95.8 21.4 94.9 19.7 92.7 19.7ZM115.4 19.3C114.5 19.3 113.5 19.3 112.9 19.7C113.4 20.4 113.8 21.3 113.8 22.6C113.8 25.6 111.8 27.8 107.7 27.8C106 27.8 104.7 27.9 104.7 28.8C104.7 31.4 115.3 27.8 115.3 34.3C115.3 36.6 113 39.1 107.9 39.1C103.6 39.1 100.7 37.8 100.7 35.3C100.7 33.3 102.2 32.3 103.6 32.3V32.2C102.9 31.7 101.2 31.3 101.2 29.6C101.2 28.1 103 26.9 103.7 26.7C102.4 25.6 101.3 24.4 101.3 22.4C101.3 19.6 103.4 16.8 107.7 16.8C109.1 16.8 110.7 17.3 111.7 18.2C112.4 17.2 113.7 16.7 115.4 16.8V19.3ZM104.1 34.6C104.1 35.8 105.2 36.4 108.4 36.4C110.9 36.4 111.7 35.2 111.7 34.6C111.7 33.9 110.6 32.8 106.8 32.8C104.8 32.7 104.1 33.9 104.1 34.6ZM107.6 19.5C105.9 19.5 104.8 20.7 104.8 22.2C104.8 23.7 105.9 24.9 107.6 24.9C109 24.9 110.2 23.7 110.2 22.2C110.2 20.7 109 19.5 107.6 19.5Z" fill="#56C491"/>
<path d="M59.6951 36C59.6951 35.7 59.9268 35.6 60.2049 35.6C60.5293 35.6 60.7146 35.8 60.8537 36.1L61.5024 35.9C61.2707 35.35 60.8073 35.05 60.2512 35.05C59.6488 35.05 59.0927 35.45 59.0927 36.1C59.0927 37.3 60.9463 37.15 60.9463 37.9C60.9463 38.3 60.6683 38.4 60.3439 38.4C59.9268 38.4 59.7415 38.15 59.5561 37.8L59 38.05C59.1854 38.6 59.7415 38.95 60.3439 38.95C61.1317 38.95 61.5951 38.55 61.5951 37.75C61.5488 36.5 59.6951 36.65 59.6951 36ZM82.9585 35.05L81.939 38.9H82.6341L82.8659 38.05H83.978L84.1634 38.9H84.8585L83.839 35.05H82.9585ZM82.9585 37.45L83.3756 35.8L83.7927 37.45H82.9585ZM87.5463 36.85C87.9171 36.65 88.1024 36.35 88.1024 36C88.0561 35.3 87.5927 35.05 86.8976 35.05H85.5537V38.9H86.8976C87.8244 38.9 88.1951 38.5 88.1951 37.9C88.1951 37.3 88.0098 37.05 87.5463 36.85ZM86.2488 35.65H86.9439C87.2683 35.65 87.4537 35.85 87.4537 36.15C87.4537 36.4 87.2683 36.65 86.9439 36.65H86.2488V35.65ZM86.9439 38.3H86.2488V37.15H86.9439C87.3146 37.15 87.5 37.35 87.5 37.7C87.5 38.1 87.3146 38.3 86.9439 38.3ZM91.6707 36.2C91.6707 35.6 91.3463 35.05 90.5585 35.05H89.122V38.9H89.8171V37.35H90.3732L91.022 38.9H91.7634L90.9756 37.2C91.439 37.05 91.6707 36.65 91.6707 36.2ZM90.3268 36.7H89.8171V35.6H90.4659C90.8366 35.6 91.022 35.8 91.022 36.15C90.9756 36.55 90.7902 36.7 90.3268 36.7ZM92.6439 38.9H93.339V35.05H92.6439V38.9ZM63.6805 35C62.7073 35 62.1976 35.7 62.1976 37C62.1976 38.25 62.7073 39 63.6805 39C64.6537 39 65.1634 38.3 65.1634 37C65.2098 35.7 64.6537 35 63.6805 35ZM63.6805 38.3C63.1244 38.3 62.8463 37.85 62.8463 36.95C62.8463 36.05 63.078 35.6 63.6805 35.6C64.2366 35.6 64.5146 36.05 64.5146 36.95C64.5146 37.85 64.2366 38.3 63.6805 38.3ZM79.5293 38.9H80.2244V37.2H81.4293V36.6H80.2244V35.7H81.8V35.1H79.5293C79.5293 35 79.5293 38.9 79.5293 38.9ZM95.6561 38.3C95.1463 38.3 94.8683 37.85 94.9146 36.95C94.9146 36.05 95.1927 35.6 95.6561 35.6C95.9805 35.6 96.2122 35.85 96.3049 36.15L96.9073 36C96.722 35.3 96.3512 35 95.6561 35C94.7293 35 94.2195 35.7 94.2195 37C94.2195 38.25 94.7293 39 95.6561 39C96.3049 39 96.7683 38.65 97 38L96.3512 37.8C96.1659 38.2 95.9341 38.3 95.6561 38.3ZM72.1146 36.2C72.1146 35.6 71.7902 35.05 71.0024 35.05H69.5659V38.9H70.261V37.35H70.8171L71.4659 38.9H72.2073L71.4195 37.2C71.9293 37.05 72.1146 36.65 72.1146 36.2ZM70.7244 36.7H70.2146V35.6H70.8634C71.2341 35.6 71.4195 35.8 71.4195 36.15C71.4195 36.55 71.2805 36.7 70.7244 36.7ZM67.9902 37.5C67.9902 38.1 67.7585 38.35 67.2951 38.35C66.8317 38.35 66.6 38.15 66.6 37.5V35.05H65.9049V37.45C65.9049 38.6 66.5537 38.95 67.2951 38.95C67.9902 38.95 68.6854 38.6 68.6854 37.45V35.05H67.9902V37.5ZM76.9805 37.2H78.1854V36.6H76.9805V35.7H78.6488V35.1H76.2854V38.95H78.6951V38.35H76.9805C76.9805 38.25 76.9805 37.2 76.9805 37.2ZM74.2463 38.3C73.7366 38.3 73.4585 37.85 73.5049 36.95C73.5049 36.05 73.7829 35.6 74.2463 35.6C74.5707 35.6 74.8024 35.85 74.8951 36.15L75.4976 36C75.3122 35.3 74.9415 35 74.2463 35C73.3195 35 72.8098 35.7 72.8098 37C72.8098 38.25 73.3195 39 74.2463 39C74.8951 39 75.3585 38.65 75.5902 38L74.9415 37.8C74.7098 38.2 74.5707 38.3 74.2463 38.3Z" fill="#1EB06C"/>
<path d="M0.698242 44V36.1797H3.10449C3.79199 36.1797 4.40609 36.3354 4.94678 36.647C5.49105 36.9549 5.91536 37.3953 6.21973 37.9683C6.52409 38.5376 6.67627 39.1857 6.67627 39.9126V40.2725C6.67627 40.9993 6.52588 41.6457 6.2251 42.2114C5.9279 42.7772 5.50716 43.2158 4.96289 43.5273C4.41862 43.8389 3.80452 43.9964 3.12061 44H0.698242ZM2.30957 37.4849V42.7056H3.08838C3.71859 42.7056 4.2002 42.4997 4.5332 42.0879C4.86621 41.6761 5.0363 41.0871 5.04346 40.3208V39.9072C5.04346 39.1123 4.87874 38.5107 4.54932 38.1025C4.21989 37.6908 3.73828 37.4849 3.10449 37.4849H2.30957ZM12.5576 40.6108H9.46387V42.7056H13.0947V44H7.85254V36.1797H13.084V37.4849H9.46387V39.3486H12.5576V40.6108ZM16.1455 36.1797L18.1543 41.8516L20.1523 36.1797H22.2686V44H20.6519V41.8623L20.813 38.1724L18.7021 44H17.5957L15.4902 38.1777L15.6514 41.8623V44H14.04V36.1797H16.1455ZM30.0996 40.2671C30.0996 41.0369 29.9635 41.7119 29.6914 42.292C29.4193 42.8721 29.029 43.3197 28.5205 43.6348C28.0156 43.9499 27.4355 44.1074 26.7803 44.1074C26.1322 44.1074 25.5539 43.9517 25.0454 43.6401C24.5369 43.3286 24.1431 42.8846 23.8638 42.3081C23.5845 41.728 23.443 41.062 23.4395 40.3101V39.9233C23.4395 39.1535 23.5773 38.4767 23.853 37.8931C24.1323 37.3058 24.5244 36.8564 25.0293 36.5449C25.5378 36.2298 26.1178 36.0723 26.7695 36.0723C27.4212 36.0723 27.9995 36.2298 28.5044 36.5449C29.0129 36.8564 29.4049 37.3058 29.6807 37.8931C29.96 38.4767 30.0996 39.1517 30.0996 39.918V40.2671ZM28.4668 39.9126C28.4668 39.0926 28.32 38.4696 28.0264 38.0435C27.7327 37.6174 27.3138 37.4043 26.7695 37.4043C26.2288 37.4043 25.8117 37.6156 25.5181 38.0381C25.2244 38.457 25.0758 39.0729 25.0723 39.8857V40.2671C25.0723 41.0656 25.2191 41.6851 25.5127 42.1255C25.8063 42.5659 26.2288 42.7861 26.7803 42.7861C27.321 42.7861 27.7363 42.5749 28.0264 42.1523C28.3164 41.7262 28.4632 41.1068 28.4668 40.2939V39.9126Z" fill="#1EB06C"/>
</svg>
