<?xml version="1.0" encoding="utf-8"?>
<!-- Generator: Adobe Illustrator 21.1.0, SVG Export Plug-In . SVG Version: 6.00 Build 0)  -->
<svg version="1.1" id="Layer_1" xmlns="http://www.w3.org/2000/svg" xmlns:xlink="http://www.w3.org/1999/xlink" x="0px" y="0px"
	 viewBox="0 0 24 24" style="enable-background:new 0 0 24 24;" xml:space="preserve">
<style type="text/css">
	.st0{fill:#888888;}
</style>
<path class="st0" d="M23,11h-2V9h-2v2h-2v2h2v2h2v-2h2 M8,11v2.4h4c-0.2,1-1.2,3-4,3c-2.4,0-4.3-2-4.3-4.4S5.6,7.6,8,7.6
	c1.4,0,2.3,0.6,2.8,1.1l1.9-1.8C11.5,5.7,9.9,5,8,5c-3.9,0-7,3.1-7,7s3.1,7,7,7c4,0,6.7-2.8,6.7-6.8c0-0.5,0-0.8-0.1-1.2H8z"/>
</svg>
