<?xml version="1.0" encoding="utf-8"?>
<!-- Generator: Adobe Illustrator 21.1.0, SVG Export Plug-In . SVG Version: 6.00 Build 0)  -->
<svg version="1.1" id="Layer_1" xmlns="http://www.w3.org/2000/svg" xmlns:xlink="http://www.w3.org/1999/xlink" x="0px" y="0px"
	 viewBox="0 0 24 24" style="enable-background:new 0 0 24 24;" xml:space="preserve">
<style type="text/css">
	.st0{fill:#888888;}
</style>
<path class="st0" d="M22.5,6c-0.8,0.3-1.6,0.6-2.5,0.7c0.9-0.5,1.6-1.4,1.9-2.4c-0.8,0.5-1.8,0.8-2.7,1.1C18.4,4.5,17.3,4,16,4
	c-2.4,0-4.3,1.9-4.3,4.3c0,0.3,0,0.7,0.1,1C8.3,9.1,5.1,7.4,3,4.8C2.6,5.4,2.4,6.2,2.4,6.9c0,1.5,0.8,2.8,1.9,3.6
	c-0.7,0-1.4-0.2-1.9-0.5c0,0,0,0,0,0c0,2.1,1.5,3.8,3.4,4.2c-0.4,0.1-0.7,0.2-1.1,0.2c-0.3,0-0.5,0-0.8-0.1c0.5,1.7,2.1,2.9,4,3
	c-1.5,1.2-3.3,1.8-5.3,1.8c-0.3,0-0.7,0-1-0.1C3.4,20.3,5.7,21,8.1,21c7.9,0,12.2-6.5,12.2-12.2c0-0.2,0-0.4,0-0.6
	C21.2,7.6,21.9,6.9,22.5,6z"/>
</svg>
