<?xml version="1.0" encoding="utf-8"?>
<!-- Generator: Adobe Illustrator 21.0.0, SVG Export Plug-In . SVG Version: 6.00 Build 0)  -->
<svg version="1.1" id="Layer_1" xmlns="http://www.w3.org/2000/svg" xmlns:xlink="http://www.w3.org/1999/xlink" x="0px" y="0px"
	 width="800px" height="600px" viewBox="0 0 800 600" style="enable-background:new 0 0 800 600;" xml:space="preserve">
<style type="text/css">
	.st0{fill:none;}
	.st1{fill:none;stroke:#FFFFFF;stroke-width:2;stroke-miterlimit:10;}
	.st2{clip-path:url(#SVGID_2_);fill:#FFFFFF;}
	.st3{clip-path:url(#SVGID_4_);fill:#FFFFFF;}
	.st4{clip-path:url(#SVGID_6_);fill:#FFFFFF;}
	.st5{clip-path:url(#SVGID_8_);fill:#FFFFFF;}
	.st6{clip-path:url(#SVGID_10_);fill:#FFFFFF;}
	.st7{clip-path:url(#SVGID_12_);fill:#FFFFFF;}
	.st8{clip-path:url(#SVGID_14_);fill:#FFFFFF;}
	.st9{clip-path:url(#SVGID_16_);fill:#FFFFFF;}
	.st10{clip-path:url(#SVGID_18_);fill:#FFFFFF;}
	.st11{clip-path:url(#SVGID_20_);fill:#FFFFFF;}
	.st12{clip-path:url(#SVGID_22_);fill:#FFFFFF;}
	.st13{fill:none;stroke:#D8D8D8;stroke-width:2;stroke-linejoin:round;stroke-miterlimit:10;}
	.st14{clip-path:url(#SVGID_24_);fill:#FFFFFF;}
	.st15{clip-path:url(#SVGID_26_);fill:#FFFFFF;}
	.st16{clip-path:url(#SVGID_28_);fill:#FFFFFF;}
	.st17{clip-path:url(#SVGID_30_);fill:#FFFFFF;}
	.st18{clip-path:url(#SVGID_32_);fill:#FFFFFF;}
	.st19{clip-path:url(#SVGID_34_);fill:#FFFFFF;}
	.st20{clip-path:url(#SVGID_36_);fill:#FFFFFF;}
	.st21{clip-path:url(#SVGID_38_);fill:#FFFFFF;}
	.st22{fill:#FFFFFF;}
	.st23{fill:#DDDDDD;}
	.st24{opacity:0.35;fill:url(#SVGID_39_);}
	.st25{fill:#EDEDED;}
</style>
<pattern  width="166" height="190" patternUnits="userSpaceOnUse" id="Social_3" viewBox="0 -192.2 166 190" style="overflow:visible;">
	<g>
		<rect y="-192.2" class="st0" width="166" height="190"/>
		<g>
			<line class="st1" x1="158.5" y1="-5" x2="158.5" y2="0"/>
			<line class="st1" x1="156" y1="-2.5" x2="161" y2="-2.5"/>
		</g>
		<g>
			<g>
				<defs>
					<path id="SVGID_1_" d="M38.2-180.3c0,0,2.5-0.2,3.5-1c0,0-0.2,0.9-3.3,3.7c0,0,1,15.1-14.6,18.8c0,0-7.9,1.7-13.7-2.7
						c0,0,6,1.1,9.4-2.7c0,0-4.4,0-5.7-4.5c0,0,1.6,0.4,2.6-0.1c0,0-4.9-1-4.9-6.5c0,0,1.3,1,2.5,0.8c0,0-4.5-3.8-1.7-8.6
						c0,0,6,7.2,13.4,6.7c-0.1-0.5-0.2-1-0.2-1.6c0-3.6,2.8-6.4,6.4-6.4c1.8,0,3.4,0.7,4.5,1.9c0.8,0,2.6-0.1,4.3-1.4
						C40.8-183.8,40.9-182.4,38.2-180.3z"/>
				</defs>
				<use xlink:href="#SVGID_1_"  style="overflow:visible;fill-rule:evenodd;clip-rule:evenodd;fill:#FFFFFF;"/>
				<clipPath id="SVGID_2_">
					<use xlink:href="#SVGID_1_"  style="overflow:visible;"/>
				</clipPath>
				<rect x="7" y="-187.4" class="st2" width="37.8" height="32.1"/>
			</g>
			<g>
				<defs>
					<path id="SVGID_3_" d="M66.9-176.2c0,0-5.3-0.4-6.7,4.9c0,0-0.5,1.4-0.4,4.7l-4.9,0v4.4l4.9,0v14.9H66v-14.9h5v-4.4h-5v-2.4
						c0-1.6,0.8-3,3.3-3h2.3v-4.1H66.9z"/>
				</defs>
				<use xlink:href="#SVGID_3_"  style="overflow:visible;fill-rule:evenodd;clip-rule:evenodd;fill:#FFFFFF;"/>
				<clipPath id="SVGID_4_">
					<use xlink:href="#SVGID_3_"  style="overflow:visible;"/>
				</clipPath>
				<rect x="51.7" y="-179.4" class="st3" width="23" height="35.1"/>
			</g>
			<g>
				<defs>
					<path id="SVGID_5_" d="M9-129.8c0,0,4.5-4.7,7.2-5.9c0,0,4.5-2.8,5.6,4.8c0,0,1.2,9.6,3,10.3c0,0,1.7,0.9,4.8-6.9
						c0,0,1-3.7-4.1-2.3c0,0,1.5-7,8.2-6.8c0,0,6.8,0.2,3.2,9.5c0,0-7.2,14.5-15,15.4c0,0-3.1,0.6-5.5-9c0,0-1.1-4.7-2.8-8.1
						c0,0-0.9-2-3.4,0.7L9-129.8z"/>
				</defs>
				<use xlink:href="#SVGID_5_"  style="overflow:visible;fill-rule:evenodd;clip-rule:evenodd;fill:#FFFFFF;"/>
				<clipPath id="SVGID_6_">
					<use xlink:href="#SVGID_5_"  style="overflow:visible;"/>
				</clipPath>
				<rect x="5.9" y="-139.8" class="st4" width="35.3" height="31.2"/>
			</g>
			<g>
				<defs>
					<path id="SVGID_7_" d="M57.7-104.1c-0.2,1-0.5,2-0.8,3c-0.3,1-0.5,2-0.9,2.9c-0.6,1.5-1.4,2.9-2.4,4.1
						c-0.7,0.8-0.5,0.5-0.7,0.4c-0.2,0-0.2-0.2-0.2-0.4c-0.2-1.2-0.1-2.6,0-3.9c0.1-1.5,0.4-2.8,0.7-4c0.6-2.4,1.1-4.8,1.7-7.2
						c0-0.2,0.1-0.4,0.1-0.5c-0.3-0.7-0.4-1.3-0.5-2c-0.1-0.8,0-1.6,0.2-2.3c0.3-1.2,1.1-2.3,2.2-2.7c0.7-0.3,1.6-0.1,2.1,0.2
						c0.5,0.3,0.9,0.8,1,1.4c0.2,0.7,0,1.6-0.1,2.2c-0.3,1.4-0.7,2.5-1.1,3.9c-0.2,0.7-0.4,1.4-0.2,2.1c0.2,0.7,0.5,1.1,1,1.5
						c0.5,0.4,1.1,0.6,1.9,0.5c1.5,0,2.5-1,3.1-1.8c1.1-1.4,1.7-3.2,2-5.5c0.1-0.7,0.1-1.5,0.1-2.3c-0.1-1.5-0.6-2.7-1.3-3.6
						c-0.7-0.9-1.7-1.6-3-2c-1.2-0.4-2.9-0.5-4.4-0.3c-2.7,0.5-4.7,2-5.8,4.1c-0.6,1.1-1,2.4-1,4c0,1.2,0.3,2.2,0.8,2.9
						c0.2,0.2,0.4,0.4,0.5,0.7c0.2,0.4,0,0.9-0.1,1.4c-0.1,0.5-0.1,1.2-0.7,1.2c-0.2,0-0.8-0.3-1-0.5c-1.2-0.9-1.7-1.5-2.3-3
						c-0.5-1.1-0.7-3.3-0.5-4.4c0.2-1.1,0.7-2.7,1.2-3.5c1-1.7,2.4-3.1,4.1-4.1c1.3-0.8,2.8-1.3,4.6-1.6c0.6-0.1,1.2-0.1,1.9-0.2
						c2-0.1,3.8,0.3,5.1,0.9c1.4,0.6,2.6,1.5,3.5,2.5c1,1.1,1.7,2.3,2.2,3.9c0.2,0.8,0.4,1.7,0.4,2.7c0,1-0.1,1.8-0.2,2.7
						c-0.6,3.3-2.2,6-4.6,7.5c-0.6,0.4-1.3,0.7-2.1,0.9c-0.8,0.2-1.7,0.4-2.7,0.3c-0.9-0.1-1.7-0.3-2.4-0.7
						C58.6-103,58.1-103.4,57.7-104.1z"/>
				</defs>
				<use xlink:href="#SVGID_7_"  style="overflow:visible;fill-rule:evenodd;clip-rule:evenodd;fill:#FFFFFF;"/>
				<clipPath id="SVGID_8_">
					<use xlink:href="#SVGID_7_"  style="overflow:visible;"/>
				</clipPath>
				<rect x="44.9" y="-126.6" class="st5" width="29.3" height="36.1"/>
			</g>
			<g>
				<defs>
					<path id="SVGID_9_" d="M149.6-169.3c0-0.7-0.2-1.2-0.6-1.7c-0.5-0.5-1.2-1-2.1-1.7c-0.2,0-0.4,0-0.6,0c-0.1,0-0.5,0-1,0.1
						c-0.5,0.1-1.1,0.2-1.6,0.4c-0.1,0.1-0.3,0.1-0.6,0.2c-0.2,0.1-0.5,0.3-0.7,0.5c-0.2,0.2-0.4,0.5-0.6,0.8
						c-0.2,0.3-0.3,0.7-0.3,1.2c0,0.9,0.4,1.7,1.2,2.3c0.8,0.6,1.9,0.9,3.2,0.9c1.2,0,2.2-0.3,2.8-0.8
						C149.3-167.8,149.6-168.5,149.6-169.3z M147.8-181.6c0.2-0.3,0.3-0.6,0.4-1c0-0.3,0.1-0.6,0.1-0.8c0-1-0.2-1.9-0.7-2.9
						c-0.2-0.5-0.5-0.9-0.9-1.2c-0.4-0.3-0.8-0.4-1.3-0.4c-0.7,0-1.2,0.3-1.7,0.8c-0.4,0.5-0.6,1.2-0.5,1.8c0,0.9,0.3,1.8,0.8,2.8
						c0.3,0.4,0.6,0.8,1,1.1c0.4,0.3,0.9,0.5,1.4,0.5C146.8-181,147.4-181.2,147.8-181.6z M152.6-173.6c0.5,0.8,0.8,1.7,0.8,3
						c0,1.7-0.8,3.3-2.3,4.6c-1.6,1.4-3.9,2.1-6.9,2.1c-2.5,0-4.4-0.6-5.6-1.6c-1.2-1-1.9-2.1-1.9-3.5c0-0.7,0.2-1.4,0.6-2.2
						c0.4-0.8,1.1-1.5,2.1-2.1c1.2-0.7,2.4-1.1,3.7-1.3c1.3-0.2,2.3-0.3,3.1-0.3c-0.3-0.3-0.5-0.7-0.7-1.1c-0.2-0.4-0.4-0.8-0.4-1.4
						c0-0.3,0-0.6,0.1-0.8c0.1-0.2,0.2-0.4,0.2-0.6c-0.4,0-0.8,0.1-1.1,0.1c-1.9,0-3.4-0.6-4.4-1.8c-1-1.1-1.6-2.4-1.6-3.8
						c0-1.8,0.7-3.3,2.2-4.8c1-0.8,2.1-1.4,3.2-1.6c1.1-0.2,2.1-0.3,3.1-0.3h7.2l-1.8,2.3h-2.2c0.2,0.1,0.9,0.8,1.2,1.1
						c0.3,0.3,0.5,0.8,0.7,1.3c0.2,0.5,0.1,0.7,0.1,1.4c0,1.3-0.3,2.3-0.8,3.1c-0.3,0.4-0.5,0.7-0.8,1c-0.3,0.3-0.7,0.6-1.1,1
						c-0.2,0.2-0.4,0.5-0.6,0.8c-0.2,0.3-0.3,0.6-0.3,1c0,0.4,0.1,0.7,0.3,0.9c0.2,0.2,0.4,0.4,0.5,0.6l1.2,1
						C151.4-175,152-174.3,152.6-173.6z"/>
				</defs>
				<use xlink:href="#SVGID_9_"  style="overflow:visible;fill-rule:evenodd;clip-rule:evenodd;fill:#FFFFFF;"/>
				<clipPath id="SVGID_10_">
					<use xlink:href="#SVGID_9_"  style="overflow:visible;"/>
				</clipPath>
				<rect x="133.7" y="-194.2" class="st6" width="23.6" height="33.4"/>
			</g>
			<line class="st1" x1="158.5" y1="-195" x2="158.5" y2="-190"/>
			<line class="st1" x1="156" y1="-192.5" x2="161" y2="-192.5"/>
			<g>
				<defs>
					<path id="SVGID_11_" d="M86.5-114.2v-19.3h-4.3v19.3H86.5z M87-138.3c0-1.4-1-2.6-2.7-2.6c-1.6,0-2.7,1.1-2.7,2.6
						c0,1.4,1,2.6,2.7,2.6C85.9-135.7,87-136.9,87-138.3z M103.9-114.2h5v-11c0-5.4-3.3-8.3-7-8.3c-3,0-4.7,1.3-5.5,2.5h-0.1
						l-0.3-2.5h-5.1v6.4v12.9h4.9v-10.2c0-0.5,0.2-1.6,0.4-1.9c0.9-2,2.3-2,3.8-2c2,0,3.9,1.9,3.9,4.2V-114.2z"/>
				</defs>
				<use xlink:href="#SVGID_11_"  style="overflow:visible;fill-rule:evenodd;clip-rule:evenodd;fill:#FFFFFF;"/>
				<clipPath id="SVGID_12_">
					<use xlink:href="#SVGID_11_"  style="overflow:visible;"/>
				</clipPath>
				<rect x="78.5" y="-144" class="st7" width="33.5" height="32.9"/>
			</g>
			<g>
				<defs>
					<path id="SVGID_13_" d="M58-56.9v7.4h6.8v4.3H58v7.8c0,0-0.3,2.9,3,2.6c1.2-0.1,2.7-0.6,3.8-2.1v5c0,0-1.1,1.3-4.1,1.8
						c-1.1,0.2-3.3,0.2-4.5,0.1c-2.1-0.3-5-1.3-5-7v-8.2H48v-4.3c0,0,5.9-0.2,5.9-7.4H58z"/>
				</defs>
				<use xlink:href="#SVGID_13_"  style="overflow:visible;fill-rule:evenodd;clip-rule:evenodd;fill:#FFFFFF;"/>
				<clipPath id="SVGID_14_">
					<use xlink:href="#SVGID_13_"  style="overflow:visible;"/>
				</clipPath>
				<rect x="44.9" y="-60" class="st8" width="23" height="33.3"/>
			</g>
			<g>
				<defs>
					<polygon id="SVGID_15_" points="86.2,-22.3 86,-22.3 85.9,-22.1 81.8,-14.7 81.5,-14.2 81.9,-14.3 101.6,-14.2 101.7,-14.2 
						101.8,-14.4 106.1,-21.8 106.4,-22.3 105.9,-22.3 					"/>
				</defs>
				<use xlink:href="#SVGID_15_"  style="overflow:visible;fill-rule:evenodd;clip-rule:evenodd;fill:#FFFFFF;"/>
				<clipPath id="SVGID_16_">
					<use xlink:href="#SVGID_15_"  style="overflow:visible;"/>
				</clipPath>
				<rect x="78.4" y="-25.4" class="st9" width="31.1" height="14.3"/>
			</g>
			<g>
				<defs>
					<polygon id="SVGID_17_" points="96.9,-24.9 97,-24.8 97.2,-24.8 105.7,-24.8 106.2,-24.8 106,-25.2 96.1,-42 96,-42.2 
						95.9,-42.2 87.2,-42.1 86.7,-42.1 87,-41.7 					"/>
				</defs>
				<use xlink:href="#SVGID_17_"  style="overflow:visible;fill-rule:evenodd;clip-rule:evenodd;fill:#FFFFFF;"/>
				<clipPath id="SVGID_18_">
					<use xlink:href="#SVGID_17_"  style="overflow:visible;"/>
				</clipPath>
				<rect x="83.6" y="-45.3" class="st10" width="25.7" height="23.6"/>
			</g>
			<g>
				<defs>
					<polygon id="SVGID_19_" points="88.9,-32.5 88.8,-32.6 85,-40.3 84.7,-40.7 84.4,-40.2 74.9,-23.4 74.8,-23.2 74.9,-23.1 
						79.2,-15.7 79.5,-15.2 79.7,-15.7 88.8,-32.3 					"/>
				</defs>
				<use xlink:href="#SVGID_19_"  style="overflow:visible;fill-rule:evenodd;clip-rule:evenodd;fill:#FFFFFF;"/>
				<clipPath id="SVGID_20_">
					<use xlink:href="#SVGID_19_"  style="overflow:visible;"/>
				</clipPath>
				<rect x="71.7" y="-43.8" class="st11" width="20.4" height="31.7"/>
			</g>
			<g>
				<defs>
					<polygon id="SVGID_21_" points="145.5,-34.1 141.1,-34.1 141.1,-40.3 133.1,-40.3 143.5,-65 153.6,-40.3 145.5,-40.3 					"/>
				</defs>
				<use xlink:href="#SVGID_21_"  style="overflow:visible;fill-rule:evenodd;clip-rule:evenodd;fill:#FFFFFF;"/>
				<clipPath id="SVGID_22_">
					<use xlink:href="#SVGID_21_"  style="overflow:visible;"/>
				</clipPath>
				<rect x="130" y="-68.1" class="st12" width="26.7" height="37.1"/>
			</g>
			<line class="st13" x1="148" y1="-47.1" x2="145.5" y2="-45.9"/>
			<line class="st13" x1="149.2" y1="-44.7" x2="145.5" y2="-42.8"/>
			<line class="st13" x1="141.1" y1="-44.7" x2="138" y2="-46.5"/>
			<polyline class="st13" points="145.5,-40 145.5,-48.4 141.1,-48.4 141.1,-40 			"/>
			<g>
				<defs>
					<rect id="SVGID_23_" x="128.1" y="-95.6" width="13.7" height="13.7"/>
				</defs>
				<use xlink:href="#SVGID_23_"  style="overflow:visible;fill-rule:evenodd;clip-rule:evenodd;fill:#FFFFFF;"/>
				<clipPath id="SVGID_24_">
					<use xlink:href="#SVGID_23_"  style="overflow:visible;"/>
				</clipPath>
				<rect x="125" y="-98.7" class="st14" width="19.9" height="19.9"/>
			</g>
			<g>
				<defs>
					<rect id="SVGID_25_" x="114.5" y="-82.2" width="13.7" height="13.7"/>
				</defs>
				<use xlink:href="#SVGID_25_"  style="overflow:visible;fill-rule:evenodd;clip-rule:evenodd;fill:#FFFFFF;"/>
				<clipPath id="SVGID_26_">
					<use xlink:href="#SVGID_25_"  style="overflow:visible;"/>
				</clipPath>
				<rect x="111.4" y="-85.4" class="st15" width="19.9" height="19.9"/>
			</g>
			<g>
				<defs>
					<path id="SVGID_27_" d="M149.8-122.6c-1,0-1.9,0.4-2.7,1l-9-5.1c0,0,0-0.1,0-0.1c0,0,0-0.1,0-0.1l8.7-5.2
						c0.8,0.8,1.9,1.3,3.1,1.3c2.6,0,4.7-2.4,4.7-5.4c0-3-2.1-5.4-4.7-5.4c-2.6,0-4.7,2.4-4.7,5.4l-8.8,5.3
						c-0.8-0.8-1.8-1.2-2.9-1.2c-2.6,0-4.7,2.4-4.7,5.4c0,3,2.1,5.4,4.7,5.4c1.1,0,2.1-0.4,2.9-1.2l9,4.9c0,0.1,0,0.2,0,0.2
						c0,2.9,2,5.2,4.5,5.2s4.5-2.3,4.5-5.2C154.3-120.3,152.3-122.6,149.8-122.6z"/>
				</defs>
				<use xlink:href="#SVGID_27_"  style="overflow:visible;fill-rule:evenodd;clip-rule:evenodd;fill:#FFFFFF;"/>
				<clipPath id="SVGID_28_">
					<use xlink:href="#SVGID_27_"  style="overflow:visible;"/>
				</clipPath>
				<rect x="125.6" y="-144.7" class="st16" width="32.1" height="35.5"/>
			</g>
			<g>
				<defs>
					<path id="SVGID_29_" d="M30-19.2c0,1-0.8,1.9-1.7,1.9h-9c-0.9,0-1.7-0.8-1.7-1.9c0-1,0.8-1.9,1.7-1.9h4.3h4.8
						C29.3-21.1,30-20.2,30-19.2z M26.3-28.5c0,1-0.9,1.8-1.9,1.8h-4.9c-1,0-1.9-0.8-1.9-1.8c0-1,0.9-1.7,1.9-1.7h4.9
						C25.4-30.2,26.3-29.5,26.3-28.5z M34.7-27.7c-0.4,0-1.6,0-1.6,0V-29c0-4.7-3.9-8.8-8.4-8.8H19c-4.6,0-8.2,4.2-8.2,8.8v10
						c0,4.7,3.7,8.5,8.2,8.5h5.6c0,0,0,0,0,0l0,0h5.7c0,0,6.6,0.2,7.1-7.4c0,0,0.2-5.7,0-7.6C37.3-27.1,35.6-27.6,34.7-27.7z"/>
				</defs>
				<use xlink:href="#SVGID_29_"  style="overflow:visible;fill-rule:evenodd;clip-rule:evenodd;fill:#FFFFFF;"/>
				<clipPath id="SVGID_30_">
					<use xlink:href="#SVGID_29_"  style="overflow:visible;"/>
				</clipPath>
				<rect x="7.7" y="-40.9" class="st17" width="33" height="33.5"/>
			</g>
			<g>
				<defs>
					<circle id="SVGID_31_" cx="128.4" cy="-17" r="4.7"/>
				</defs>
				<use xlink:href="#SVGID_31_"  style="overflow:visible;fill-rule:evenodd;clip-rule:evenodd;fill:#FFFFFF;"/>
				<clipPath id="SVGID_32_">
					<use xlink:href="#SVGID_31_"  style="overflow:visible;"/>
				</clipPath>
				<rect x="120.6" y="-24.8" class="st18" width="15.5" height="15.5"/>
			</g>
			<g>
				<defs>
					<circle id="SVGID_33_" cx="143.6" cy="-16.7" r="3.7"/>
				</defs>
				<use xlink:href="#SVGID_33_"  style="overflow:visible;fill-rule:evenodd;clip-rule:evenodd;fill:#FFFFFF;"/>
				<clipPath id="SVGID_34_">
					<use xlink:href="#SVGID_33_"  style="overflow:visible;"/>
				</clipPath>
				<rect x="136.8" y="-23.5" class="st19" width="13.7" height="13.7"/>
			</g>
			<g>
				<defs>
					<circle id="SVGID_35_" cx="156" cy="-16.7" r="2.5"/>
				</defs>
				<use xlink:href="#SVGID_35_"  style="overflow:visible;fill-rule:evenodd;clip-rule:evenodd;fill:#FFFFFF;"/>
				<clipPath id="SVGID_36_">
					<use xlink:href="#SVGID_35_"  style="overflow:visible;"/>
				</clipPath>
				<rect x="150.4" y="-22.3" class="st20" width="11.2" height="11.2"/>
			</g>
			<g>
				<defs>
					<path id="SVGID_37_" d="M91.5-70.9v-7.2c0-3.4,0-6.2,0-9c0-0.2,0-0.2-0.2-0.2c-0.3,0-0.7,0-1,0c-1.6,0.1-3.1,0.2-4.7,0.4
						c-2.6,0.4-5.1,1-7.6,2c-0.1,0-0.1,0.1-0.1,0.2c0,0.2,0,0.4,0,0.6c0,4.4,0,8.8,0,13.2c0,0.2,0,0.2-0.2,0.2
						c-1.4-0.4-2.7-0.2-4,0.7c-0.6,0.4-1,1-1.3,1.7c-0.3,1-0.2,1.9,0.4,2.7c0.3,0.3,0.7,0.5,1.1,0.7c1.6,0.7,3,0.5,4.4-0.5
						c0.9-0.6,1.4-1.5,1.4-2.6c0-0.8,0-1.6,0-2.4c0-2.7,0-5.5,0-8.2c0-0.5,0-0.5,0.5-0.6c1.8-0.5,3.7-1,5.6-1.3
						c1.2-0.2,2.4-0.4,3.7-0.4c0.1,0,0.2,0,0.2,0.2c0,2.5,0,4.9,0,7.4c0,0.2-0.1,0.2-0.2,0.1c-0.4-0.1-0.7-0.2-1.1-0.2
						c-1.3,0-2.5,0.4-3.4,1.4c-0.6,0.7-0.9,1.5-0.8,2.4c0.2,1.1,0.9,1.8,1.9,2.2c1.3,0.5,2.5,0.3,3.7-0.3
						C90.8-68.4,91.5-69.4,91.5-70.9z M65.4-75.7c0-9.6,7.8-17.4,17.4-17.4c9.6,0,17.4,7.8,17.4,17.4s-7.8,17.4-17.4,17.4
						C73.2-58.3,65.4-66.1,65.4-75.7z"/>
				</defs>
				<use xlink:href="#SVGID_37_"  style="overflow:visible;fill-rule:evenodd;clip-rule:evenodd;fill:#FFFFFF;"/>
				<clipPath id="SVGID_38_">
					<use xlink:href="#SVGID_37_"  style="overflow:visible;"/>
				</clipPath>
				<rect x="62.3" y="-96.2" class="st21" width="41" height="41"/>
			</g>
			<g>
				<path class="st22" d="M25.1-85.6c3.7,0,4.2,0,5.6,0.1c1.4,0.1,2.1,0.3,2.6,0.5c0.7,0.3,1.1,0.6,1.6,1c0.5,0.5,0.8,1,1,1.6
					c0.2,0.5,0.4,1.2,0.5,2.6c0.1,1.5,0.1,1.9,0.1,5.6s0,4.2-0.1,5.6c-0.1,1.4-0.3,2.1-0.5,2.6c-0.3,0.7-0.6,1.1-1,1.6
					c-0.5,0.5-1,0.8-1.6,1c-0.5,0.2-1.2,0.4-2.6,0.5c-1.5,0.1-1.9,0.1-5.6,0.1s-4.2,0-5.6-0.1c-1.4-0.1-2.1-0.3-2.6-0.5
					c-0.7-0.3-1.1-0.6-1.6-1c-0.5-0.5-0.8-1-1-1.6c-0.2-0.5-0.4-1.2-0.5-2.6c-0.1-1.5-0.1-1.9-0.1-5.6s0-4.2,0.1-5.6
					c0.1-1.4,0.3-2.1,0.5-2.6c0.3-0.7,0.6-1.1,1-1.6c0.5-0.5,1-0.8,1.6-1c0.5-0.2,1.2-0.4,2.6-0.5C21-85.6,21.4-85.6,25.1-85.6
					 M25.1-88.1c-3.8,0-4.3,0-5.7,0.1c-1.5,0.1-2.5,0.3-3.4,0.6c-0.9,0.4-1.7,0.8-2.5,1.6c-0.8,0.8-1.3,1.6-1.6,2.5
					c-0.3,0.9-0.6,1.9-0.6,3.4c-0.1,1.5-0.1,2-0.1,5.7c0,3.8,0,4.3,0.1,5.7c0.1,1.5,0.3,2.5,0.6,3.4c0.4,0.9,0.8,1.7,1.6,2.5
					c0.8,0.8,1.6,1.3,2.5,1.6c0.9,0.3,1.9,0.6,3.4,0.6c1.5,0.1,2,0.1,5.7,0.1s4.3,0,5.7-0.1c1.5-0.1,2.5-0.3,3.4-0.6
					c0.9-0.4,1.7-0.8,2.5-1.6c0.8-0.8,1.3-1.6,1.6-2.5c0.3-0.9,0.6-1.9,0.6-3.4c0.1-1.5,0.1-2,0.1-5.7c0-3.8,0-4.3-0.1-5.7
					c-0.1-1.5-0.3-2.5-0.6-3.4c-0.4-0.9-0.8-1.7-1.6-2.5c-0.8-0.8-1.6-1.3-2.5-1.6c-0.9-0.3-1.9-0.6-3.4-0.6
					C29.4-88.1,28.9-88.1,25.1-88.1L25.1-88.1z"/>
				<path class="st22" d="M25.1-81.4c-4,0-7.2,3.2-7.2,7.2s3.2,7.2,7.2,7.2s7.2-3.2,7.2-7.2S29.1-81.4,25.1-81.4z M25.1-69.6
					c-2.6,0-4.6-2.1-4.6-4.6s2.1-4.6,4.6-4.6c2.6,0,4.6,2.1,4.6,4.6S27.7-69.6,25.1-69.6z"/>
				<circle class="st22" cx="32.6" cy="-81.6" r="1.7"/>
			</g>
			<path class="st22" d="M121-181.6c-0.4-1.6-1.6-2.8-3.2-3.2c-2.8-0.8-14.2-0.8-14.2-0.8s-11.4,0-14.2,0.8
				c-1.6,0.4-2.8,1.6-3.2,3.2c-0.8,2.8-0.8,8.7-0.8,8.7s0,5.9,0.8,8.7c0.4,1.6,1.6,2.8,3.2,3.2c2.8,0.8,14.2,0.8,14.2,0.8
				s11.4,0,14.2-0.8c1.6-0.4,2.8-1.6,3.2-3.2c0.8-2.8,0.8-8.7,0.8-8.7S121.8-178.8,121-181.6z M100-167.4v-10.9l9.4,5.4L100-167.4z"
				/>
		</g>
	</g>
</pattern>
<rect class="st23" width="800" height="600"/>
<pattern  id="SVGID_39_" xlink:href="#Social_3" patternTransform="matrix(1 0 0 1 -80 20)">
</pattern>
<rect class="st24" width="800" height="600"/>
<polygon class="st23" points="143,217.7 176.3,213.7 215,209.7 242.3,208.3 285.7,211.7 331.7,213 369,213 397,209 417.7,208.3 
	460.3,212.3 512.3,209.7 545.7,212.3 562.3,207.7 582.3,208.3 603.7,211 627,215 632.3,244.3 633,271.7 625,287.7 624.3,317 
	626.3,331.7 626.3,348.3 600.3,360.3 579,367 561,379 529.7,376.3 511.7,355.7 498.3,355.7 487,371.7 477,385.7 459.7,384.3 
	448.3,358.3 429,358.3 423,387.7 400.3,377 380.3,379 361,363 347,354.3 332.3,355.7 323,369 313.7,383 298.3,379.7 283,361.7 
	250.3,359 239.7,373.7 215.7,377.7 192.3,357.7 161,353.7 143.7,341 153,310.3 165.7,296.3 161,278.3 160.3,257 161.7,232.3 
	161.7,220.3 "/>
<g>
	<path class="st25" d="M277.2,286.3h18.6V322c-4.8,3.6-10.3,6.4-16.6,8.3s-12.6,2.9-18.9,2.9c-9.1,0-17.3-1.9-24.6-5.8
		s-13-9.3-17.1-16.2s-6.2-14.7-6.2-23.4c0-8.7,2.1-16.5,6.2-23.4c4.1-6.9,9.9-12.3,17.2-16.2c7.4-3.9,15.6-5.8,24.8-5.8
		c7.7,0,14.7,1.3,20.9,3.9c6.3,2.6,11.5,6.4,15.8,11.3l-13,12c-6.3-6.6-13.8-9.9-22.7-9.9c-5.6,0-10.6,1.2-14.9,3.5
		c-4.3,2.3-7.7,5.6-10.2,9.9c-2.4,4.3-3.6,9.2-3.6,14.7c0,5.4,1.2,10.3,3.6,14.6c2.4,4.3,5.8,7.6,10.1,10c4.3,2.4,9.2,3.6,14.7,3.6
		c5.9,0,11.1-1.3,15.8-3.8V286.3z"/>
	<path class="st25" d="M314.6,243.8h39.9c9.5,0,18,1.8,25.3,5.5c7.3,3.6,13,8.8,17.1,15.4c4.1,6.6,6.1,14.3,6.1,23.1
		c0,8.8-2,16.5-6.1,23.1c-4.1,6.6-9.7,11.7-17.1,15.4c-7.3,3.6-15.7,5.5-25.3,5.5h-39.9V243.8z M353.5,314.9c8.8,0,15.8-2.4,21-7.3
		c5.2-4.9,7.8-11.5,7.8-19.9c0-8.4-2.6-15-7.8-19.9c-5.2-4.9-12.2-7.3-21-7.3h-18.6v54.4H353.5z"/>
	<path class="st25" d="M476.5,247.7c5.7,2.6,10.1,6.3,13.2,11c3.1,4.8,4.6,10.4,4.6,16.9c0,6.4-1.5,12.1-4.6,16.9
		c-3.1,4.8-7.5,8.5-13.2,11c-5.7,2.6-12.5,3.8-20.3,3.8h-17.7v24.2h-20.3v-87.8h38C464,243.8,470.7,245.1,476.5,247.7z M469,286.9
		c3.2-2.6,4.8-6.4,4.8-11.2c0-4.9-1.6-8.7-4.8-11.4c-3.2-2.6-7.8-4-13.9-4h-16.6v30.5h16.6C461.2,290.9,465.8,289.5,469,286.9z"/>
	<path class="st25" d="M564.7,331.6l-16.9-24.5h-1h-17.7v24.5h-20.3v-87.8h38c7.8,0,14.5,1.3,20.3,3.9c5.7,2.6,10.1,6.3,13.2,11
		c3.1,4.8,4.6,10.4,4.6,16.9c0,6.5-1.6,12.1-4.7,16.9c-3.1,4.7-7.6,8.3-13.4,10.9l19.7,28.2H564.7z M559.6,264.3
		c-3.2-2.6-7.8-4-13.9-4h-16.6V291h16.6c6.1,0,10.7-1.3,13.9-4c3.2-2.7,4.8-6.4,4.8-11.3C564.3,270.7,562.8,267,559.6,264.3z"/>
</g>
</svg>
