<?xml version="1.0" encoding="utf-8"?>
<!-- Generator: Adobe Illustrator 22.1.0, SVG Export Plug-In . SVG Version: 6.00 Build 0)  -->
<svg version="1.1" id="Layer_1" xmlns="http://www.w3.org/2000/svg" xmlns:xlink="http://www.w3.org/1999/xlink" x="0px" y="0px"
	 viewBox="0 0 24 24" style="enable-background:new 0 0 24 24;" xml:space="preserve">
<style type="text/css">
	.st0{fill:#888888;}
</style>
<path class="st0" d="M19.1,4.2c-0.5-0.4-2.4-1.9-6.7-1.9c0,0-5.1-0.3-7.6,2c-1.4,1.4-1.9,3.4-1.9,5.9c-0.1,2.5-0.1,7.2,4.4,8.5h0
	l0,1.9c0,0,0,0.8,0.5,0.9c0.6,0.2,1-0.4,1.6-1c0.3-0.4,0.8-0.9,1.1-1.3c3.1,0.3,5.5-0.3,5.8-0.4c0.6-0.2,4.2-0.7,4.7-5.4
	C21.6,8.7,20.7,5.6,19.1,4.2z M19.6,13.2c-0.5,3.9-3.4,4.2-3.9,4.3c-0.2,0.1-2.3,0.6-5,0.4c0,0-2,2.4-2.6,3
	c-0.2,0.2-0.4,0.2-0.4-0.2c0-0.3,0-3.2,0-3.2c0,0,0,0,0,0c-3.8-1.1-3.6-5.1-3.6-7.2c0-2.1,0.4-3.8,1.6-5c2.1-1.9,6.4-1.6,6.4-1.6
	c3.7,0,5.4,1.1,5.8,1.5C19.4,6.4,20.1,9.1,19.6,13.2C19.6,13.2,19.6,13.2,19.6,13.2z M14.4,10.1c0,0.3-0.5,0.3-0.5,0
	c0-0.8-0.4-1.2-1.2-1.3c-0.3,0-0.3-0.5,0-0.5C13.7,8.4,14.3,9,14.4,10.1z M15.1,10.5c0-1.6-1-2.9-2.9-3c-0.3,0-0.3-0.5,0-0.5
	c2.2,0.2,3.4,1.7,3.3,3.5C15.6,10.9,15.1,10.9,15.1,10.5z M16.9,11c0,0.3-0.5,0.3-0.5,0c0-3.1-2.1-4.8-4.6-4.8c-0.3,0-0.3-0.5,0-0.5
	C14.7,5.8,16.9,7.7,16.9,11z M16.5,14.8L16.5,14.8c-0.4,0.7-1.2,1.5-2,1.3l0,0c-0.8-0.2-2.7-1.2-3.9-2.1c-0.6-0.5-1.2-1.1-1.6-1.6
	c-0.4-0.5-0.8-1.1-1.2-1.8c-0.8-1.5-1-2.1-1-2.1c-0.3-0.8,0.5-1.5,1.3-2h0c0.3-0.2,0.7-0.1,0.9,0.1c0,0,0.5,0.6,0.7,0.8
	c0.2,0.3,0.4,0.7,0.6,0.9c0.2,0.4,0.1,0.8-0.1,1L9.7,9.7c-0.2,0.2-0.2,0.5-0.2,0.5s0.7,2.5,3.2,3.2c0,0,0.3,0,0.5-0.2l0.4-0.5
	c0.2-0.2,0.6-0.4,1-0.1c0.6,0.3,1.3,0.8,1.7,1.2C16.6,14.1,16.7,14.4,16.5,14.8C16.5,14.8,16.5,14.8,16.5,14.8z"/>
</svg>
