<?xml version="1.0" encoding="utf-8"?>
<!-- Generator: Adobe Illustrator 21.1.0, SVG Export Plug-In . SVG Version: 6.00 Build 0)  -->
<svg version="1.1" id="Layer_1" xmlns="http://www.w3.org/2000/svg" xmlns:xlink="http://www.w3.org/1999/xlink" x="0px" y="0px"
	 viewBox="0 0 24 24" style="enable-background:new 0 0 24 24;" xml:space="preserve">
<style type="text/css">
	.st0{fill:none;}
	.st1{fill:#FFFFFF;}
	.st2{fill:#555555;}
</style>
<path class="st0" d="M0,0h24v24H0V0z"/>
<g>
	<polygon class="st1" points="3.3,12 12,3.3 14.1,5.4 9,10.5 20.5,10.5 20.5,13.5 9,13.5 14.1,18.6 12,20.7 	"/>
	<path class="st2" d="M12,4l1.4,1.4L7.8,11H20v2H7.8l5.6,5.6L12,20l-8-8L12,4 M12,2.6l-0.7,0.7l-8,8L2.6,12l0.7,0.7l8,8l0.7,0.7
		l0.7-0.7l1.4-1.4l0.7-0.7l-0.7-0.7L10.2,14H20h1v-1v-2v-1h-1h-9.8l3.9-3.9l0.7-0.7l-0.7-0.7l-1.4-1.4L12,2.6L12,2.6z"/>
</g>
</svg>
