<?xml version="1.0" encoding="utf-8"?>
<!-- Generator: Adobe Illustrator 21.1.0, SVG Export Plug-In . SVG Version: 6.00 Build 0)  -->
<svg version="1.1" id="Layer_1" xmlns="http://www.w3.org/2000/svg" xmlns:xlink="http://www.w3.org/1999/xlink" x="0px" y="0px"
	 viewBox="0 0 24 24" style="enable-background:new 0 0 24 24;" xml:space="preserve">
<style type="text/css">
	.st0{fill:none;}
	.st1{fill:#FFFFFF;}
	.st2{fill:#555555;}
</style>
<path class="st0" d="M0,0h24v24H0V0z"/>
<g>
	<polygon class="st1" points="9.9,18.6 15,13.5 3.5,13.5 3.5,10.5 15,10.5 9.9,5.4 12,3.3 20.7,12 12,20.7 	"/>
	<path class="st2" d="M12,4l8,8l-8,8l-1.4-1.4l5.6-5.6H4v-2h12.2l-5.6-5.6L12,4 M12,2.6l-0.7,0.7L9.9,4.7L9.2,5.4l0.7,0.7l3.9,3.9H4
		H3v1v2v1h1h9.8l-3.9,3.9l-0.7,0.7l0.7,0.7l1.4,1.4l0.7,0.7l0.7-0.7l8-8l0.7-0.7l-0.7-0.7l-8-8L12,2.6L12,2.6z"/>
</g>
</svg>
