<?xml version="1.0" encoding="utf-8"?>
<!-- Generator: Adobe Illustrator 21.1.0, SVG Export Plug-In . SVG Version: 6.00 Build 0)  -->
<svg version="1.1" id="Layer_1" xmlns="http://www.w3.org/2000/svg" xmlns:xlink="http://www.w3.org/1999/xlink" x="0px" y="0px"
	 viewBox="0 0 24 24" style="enable-background:new 0 0 24 24;" xml:space="preserve">
<style type="text/css">
	.st0{fill:none;}
	.st1{fill:#FFFFFF;}
	.st2{fill:#555555;}
</style>
<path class="st0" d="M0,0h24v24H0V0z"/>
<g>
	<path class="st1" d="M13.5,19.5v-3h3v-3h3v6H13.5z M4.5,19.5v-6h3v3h3v3H4.5z M16.5,10.5v-3h-3v-3h6v6H16.5z M4.5,10.5v-6h6v3h-3v3
		H4.5z"/>
	<path class="st2" d="M19,5v5h-2V7h-3V5H19 M10,5v2H7v3H5V5H10 M19,14v5h-5v-2h3v-3H19 M7,14v3h3v2H5v-5H7 M20,4h-1h-5h-1v1v2v1h1h2
		v2v1h1h2h1v-1V5V4L20,4z M11,4h-1H5H4v1v5v1h1h2h1v-1V8h2h1V7V5V4L11,4z M20,13h-1h-2h-1v1v2h-2h-1v1v2v1h1h5h1v-1v-5V13L20,13z
		 M8,13H7H5H4v1v5v1h1h5h1v-1v-2v-1h-1H8v-2V13L8,13z"/>
</g>
</svg>
