<?xml version="1.0" encoding="utf-8"?>
<!-- Generator: Adobe Illustrator 21.1.0, SVG Export Plug-In . SVG Version: 6.00 Build 0)  -->
<svg version="1.1" id="Layer_1" xmlns="http://www.w3.org/2000/svg" xmlns:xlink="http://www.w3.org/1999/xlink" x="0px" y="0px"
	 viewBox="0 0 24 24" style="enable-background:new 0 0 24 24;" xml:space="preserve">
<style type="text/css">
	.st0{fill:none;}
	.st1{fill:#FFFFFF;}
	.st2{fill:#555555;}
</style>
<path class="st0" d="M0,0h24v24H0V0z"/>
<g>
	<path class="st1" d="M13.5,19.5v-6h6v3h-3v3H13.5z M7.5,19.5v-3h-3v-3h6v6H7.5z M13.5,10.5v-6h3v3h3v3H13.5z M4.5,10.5v-3h3v-3h3v6
		H4.5z"/>
	<path class="st2" d="M16,5v3h3v2h-5V5H16 M10,5v5H5V8h3V5H10 M19,14v2h-3v3h-2v-5H19 M10,14v5H8v-3H5v-2H10 M17,4h-1h-2h-1v1v5v1h1
		h5h1v-1V8V7h-1h-2V5V4L17,4z M11,4h-1H8H7v1v2H5H4v1v2v1h1h5h1v-1V5V4L11,4z M20,13h-1h-5h-1v1v5v1h1h2h1v-1v-2h2h1v-1v-2V13L20,13
		z M11,13h-1H5H4v1v2v1h1h2v2v1h1h2h1v-1v-5V13L11,13z"/>
</g>
</svg>
