<?xml version="1.0" encoding="utf-8"?>
<!-- Generator: Adobe Illustrator 18.1.1, SVG Export Plug-In . SVG Version: 6.00 Build 0)  -->
<svg version="1.1" id="Layer_2" xmlns="http://www.w3.org/2000/svg" xmlns:xlink="http://www.w3.org/1999/xlink" x="0px" y="0px"
	 viewBox="0 0 24 24" width="28px" height="24px" enable-background="new 0 0 24 24" xml:space="preserve">
<path fill="#007FB3" d="M20,2H4C2.5,2,1,3.563,1,4.938V14c0,1.5,1.563,3,3,3h2v5l5-5h9c1.563,0,3-1.417,3-3V5C23,3.5,21.479,2,20,2z
	 M5,6h11v1H5V6z M5,10h7v1H5V10z M15,13H5v-1h10V13z M19,9H5V8h14V9z"/>
</svg>
