<?xml version="1.0" encoding="utf-8"?>
<!-- Generator: Adobe Illustrator 18.1.1, SVG Export Plug-In . SVG Version: 6.00 Build 0)  -->
<svg version="1.1" id="Layer_2" xmlns="http://www.w3.org/2000/svg" xmlns:xlink="http://www.w3.org/1999/xlink" x="0px" y="0px"
	 viewBox="-485 489 28 24" enable-background="new -485 489 28 24" xml:space="preserve">
<path d="M-463,491h-16c-1.5,0-3,1.6-3,2.9v9.1c0,1.5,1.6,3,3,3h2v5l5-5h9c1.6,0,3-1.4,3-3v-9C-460,492.5-461.5,491-463,491z
	 M-478,495h11v1h-11V495z M-478,499h7v1h-7V499z M-468,502h-10v-1h10V502z M-464,498h-14v-1h14V498z"/>
</svg>
