<?xml version="1.0" encoding="utf-8"?>
<!-- Generator: Adobe Illustrator 18.1.1, SVG Export Plug-In . SVG Version: 6.00 Build 0)  -->
<svg version="1.1" xmlns="http://www.w3.org/2000/svg" xmlns:xlink="http://www.w3.org/1999/xlink" x="0px" y="0px"
	 viewBox="0 0 36 36" width="36px" height="36px" enable-background="new 0 0 36 36" xml:space="preserve">
<g id="Layer_1" display="none">
	<path display="inline" d="M29.6,1H5.4C2.97,1,1,2.97,1,5.4V20c0,2.431,1.57,5,4,5h5v8l9-8h11c2.431,0,4-2.569,4-5V5.4
		C34,2.97,32.03,1,29.6,1z M7,7h12v2H7V7z M7,17h16v2H7V17z M28,14H7v-2h21V14z"/>
</g>
<g id="Layer_2">
	<path fill="#333333" d="M29,4H6C3.57,4,2,5.57,2,8v14c0,2.431,1.57,4,4,4h2v6l7-6h14c2.431,0,4-1.569,4-4V8C33,5.57,31.431,4,29,4z
		 M8,10h14v1H8V10z M21,20H8v-1h13V20z M18,17H8v-1h10V17z M27,14H8v-1h19V14z"/>
</g>
</svg>
