<?xml version="1.0" encoding="utf-8"?>
<!-- Generator: Adobe Illustrator 18.1.1, SVG Export Plug-In . SVG Version: 6.00 Build 0)  -->
<svg version="1.1" id="Layer_1" xmlns="http://www.w3.org/2000/svg" xmlns:xlink="http://www.w3.org/1999/xlink" x="0px" y="0px"
	 viewBox="-481 483 31 28" enable-background="new -481 483 31 28" xml:space="preserve">
<g id="Layer_1_1_" display="none">
	<path display="inline" d="M-451.4,484h-24.2c-2.4,0-4.4,2-4.4,4.4V503c0,2.4,1.6,5,4,5h5v8l9-8h11c2.4,0,4-2.6,4-5v-14.6
		C-447,486-449,484-451.4,484z M-474,490h12v2h-12V490z M-474,500h16v2h-16V500z M-453,497h-21v-2h21V497z"/>
</g>
<g id="Layer_2">
	<path d="M-454,483h-23c-2.4,0-4,1.6-4,4v14c0,2.4,1.6,4,4,4h2v6l7-6h14c2.4,0,4-1.6,4-4v-14C-450,484.6-451.6,483-454,483z
		 M-475,489h14v1h-14V489z M-462,499h-13v-1h13V499z M-465,496h-10v-1h10V496z M-456,493h-19v-1h19V493z"/>
</g>
</svg>
