<svg xmlns="http://www.w3.org/2000/svg" viewBox="0 0 28 24" width="28px" height="24px" enable-background="new 0 0 28 24"><g fill="#007fb3"><path d="m11.03 12.97l9.411-9.411 3.113 3.13-9.394 9.411z"/><path d="m21.401 2.651c0 0 .649-.701 1.13-1.182s.805-.432 1.286.05 1.279 1.279 1.761 1.761.321.963 0 1.284c-.321.32-1.078 1.186-1.078 1.186l-3.099-3.099"/><path d="m13 17.04l-4 .96 1.08-4z"/><path d="M18,15v3.5c0,0.827-0.673,1.5-1.5,1.5h-11C4.673,20,4,19.327,4,18.5v-11C4,6.673,4.673,6,5.5,6H15l2-2H5.5
		C3.57,4,2,5.57,2,7.5v11C2,20.43,3.57,22,5.5,22h11c1.93,0,3.5-1.57,3.5-3.5V13L18,15z"/></g></svg>