<?xml version="1.0" encoding="utf-8"?>
<!-- Generator: Adobe Illustrator 22.1.0, SVG Export Plug-In . SVG Version: 6.00 Build 0)  -->
<svg version="1.1" id="Ebene_1" xmlns="http://www.w3.org/2000/svg" xmlns:xlink="http://www.w3.org/1999/xlink" x="0px" y="0px"
	 viewBox="0 0 14 14" style="enable-background:new 0 0 14 14;" xml:space="preserve">
<style type="text/css">
	.st0{fill:#F4511E;}
</style>
<g>
	<path class="st0" d="M7,0C3.1,0,0,3.1,0,7c0,3.9,3.1,7,7,7s7-3.1,7-7C14,3.1,10.9,0,7,0z M7,2c1,0,2,0.3,2.8,0.8L2.8,9.8
		C2.3,9,2,8,2,7C2,4.2,4.2,2,7,2z M7,12c-1,0-2-0.3-2.8-0.8l6.9-6.9C11.7,5,12,6,12,7C12,9.8,9.8,12,7,12z"/>
</g>
</svg>
