<svg width="26" height="27" viewBox="0 0 26 27" fill="none" xmlns="http://www.w3.org/2000/svg">
<path d="M12.4533 24.9231C6.13279 24.9231 1.04004 20.3705 1.04004 13.6956C1.04004 7.02075 6.13724 2.0769 12.4533 2.0769C18.7693 2.0769 23.92 7.02075 23.92 13.6956C23.92 20.3705 18.7693 24.9231 12.4533 24.9231ZM12.4533 4.35406C7.33818 4.35406 3.21951 8.29462 3.21951 13.7003C3.21951 19.1061 7.33818 22.6352 12.4533 22.6352C17.5683 22.6352 21.7495 19.1061 21.7495 13.7003C21.7495 8.29462 17.5683 4.35406 12.4533 4.35406ZM17.137 17.6771L11.5015 15.3456L11.4971 15.3409C11.4392 15.3127 11.3903 15.2657 11.3369 15.228C11.2791 15.1857 11.2124 15.1575 11.1635 15.1058C11.0345 14.9695 10.9544 14.7862 10.9055 14.5935C10.8788 14.4995 10.8566 14.4054 10.8521 14.3067V8.46854C10.8521 7.85746 11.3191 7.35919 11.9018 7.35919H11.9863C12.5646 7.35919 13.036 7.85276 13.036 8.46854V13.5593L17.8264 15.5383C18.3424 15.7545 18.6137 16.4032 18.4224 16.9955C18.2267 17.5878 17.6529 17.8886 17.137 17.6771Z" fill="#007FB3" stroke="#007FB3" stroke-width="0.5"/>
</svg>
