<svg xmlns="http://www.w3.org/2000/svg" viewBox="0 0 243.8 87.9"><path fill="#1EB06C" d="M219.1 0L198 7.3l26.1 9.9-9.6 25.8 17.8-10.2 11.4-23.5L219.1 0z"/><path fill="#56C491" d="M0 55.6V18.1h7.2v31.5h16.3v6H0zm27.6-32v-6H34v6h-6.4zm6.4 32h-6.4v-27H34v27zm3.5-27h6.4l4.5 18.3h.1l4.6-18.3h6.4l-7.7 27H45l-7.5-27zm29.2 14.5c.1 5.6 2.6 7.8 5.6 7.8 3 0 4.4-1.4 6-3.2l4.7 2.9c-2.5 3.8-6.1 5.5-11.3 5.5-7 0-11.4-5.5-11.4-14S64.7 28 72 28c7.1-.1 11 5.9 11 12.4v2.7H66.7zm10.4-4.4c-.1-3.7-2.1-5.9-5.2-5.9s-5.1 2.2-5.2 5.9h10.4zm23.2-20.6h13.9c7.5 0 12.3 2.5 12.7 9.2 0 3.9-1.6 6.9-5.7 8.5 4.9 2 6.6 4.2 6.6 9.9 0 5.8-4.1 9.9-13.7 9.9h-13.8V18.1zm7.1 14.9h7.2c3.4 0 5.1-2 5.1-4.6s-1.7-4.6-5.1-4.6h-7.2V33zm0 16.8h7.2c4.2 0 6-1.9 6-5.5s-1.8-5.5-6-5.5h-7.2v11zm26 5.8V18.1h6.4v37.5h-6.4zM156 28c7.3 0 11.8 5.5 11.8 14s-4.4 14-11.8 14c-7.3 0-11.8-5.5-11.8-14s4.5-14 11.8-14zm0 5.2c-3.6 0-5.3 2.8-5.3 8.8s1.7 8.8 5.3 8.8c3.6 0 5.3-2.8 5.3-8.8s-1.7-8.8-5.3-8.8zm38.1-.8c-1.5 0-3.2 0-4.2.6.8 1.1 1.5 2.7 1.5 4.8 0 5.1-3.4 8.7-10.2 8.7-2.8 0-5 .1-5 1.7 0 4.4 17.8-1.6 17.8 9.3 0 3.8-3.9 8-12.5 8-7.3 0-12.1-2.2-12.1-6.4 0-3.4 2.5-5 4.9-5V54c-1.2-.8-4-1.5-4-4.4 0-2.6 3-4.6 4.2-4.9-2.2-1.8-4-3.9-4-7.2 0-4.7 3.6-9.4 10.7-9.4 2.3 0 5 .9 6.7 2.4 1.2-1.7 3.3-2.5 6.3-2.4l-.1 4.3zm-18.9 25.8c0 2.1 1.8 3 7.2 3 4.2 0 5.6-2.1 5.6-3 0-1.2-1.9-3.1-8.2-3.1-3.5 0-4.6 2-4.6 3.1zm5.8-25.4c-2.8 0-4.7 2-4.7 4.5s1.9 4.5 4.7 4.5c2.4 0 4.4-2 4.4-4.5s-2-4.5-4.4-4.5z"/><path fill="#1EB06C" d="M57.6 77.9c0-1 .8-1.4 1.8-1.4 1.2 0 1.9.7 2.3 1.7l2.3-.7c-.8-1.9-2.5-2.9-4.6-2.9-2.2 0-4.2 1.3-4.2 3.6 0 4 6.7 3.5 6.7 6 0 1.3-1 1.7-2.2 1.7-1.5 0-2.2-.8-2.8-2l-2 .9c.7 1.9 2.7 3.1 4.8 3.1 2.9 0 4.5-1.3 4.5-4 0-4.3-6.6-3.8-6.6-6zm84.4-3.2l-3.7 13h2.5l.8-2.8h4.1l.7 2.8h2.5l-3.7-13H142zm0 8.1l1.5-5.6 1.5 5.6h-3zm16.7-2c1.4-.6 2-1.6 2-2.9-.1-2.3-1.8-3.2-4.4-3.2h-4.8v13h4.8c3.3 0 4.7-1.4 4.7-3.4 0-2.1-.6-2.8-2.3-3.5zm-4.7-4.1h2.5c1.2 0 1.8.7 1.8 1.6s-.6 1.6-1.8 1.6H154v-3.2zm2.4 8.9H154v-3.8h2.5c1.4 0 2.1.6 2.1 1.9-.1 1.3-.7 1.9-2.2 1.9zm17.2-7.1c0-2.1-1.2-3.8-4.1-3.8h-5.2v13h2.5v-5.3h2.1l2.4 5.3h2.7l-2.9-5.8c1.7-.5 2.5-1.8 2.5-3.4zm-4.9 1.8h-1.8v-3.7h2.3c1.4 0 2.1.6 2.1 1.8-.2 1.3-.8 1.9-2.6 1.9zm8.5 7.3h2.5v-13h-2.5v13zM72.1 74.5c-3.5 0-5.4 2.4-5.4 6.7 0 4.2 1.9 6.7 5.4 6.7 3.5 0 5.4-2.4 5.4-6.7 0-4.3-1.9-6.7-5.4-6.7zm0 11.2c-2 0-3-1.5-3-4.6 0-3 .9-4.6 3-4.6 2 0 3 1.5 3 4.6-.1 3.1-1 4.6-3 4.6zm57.4 1.9h2.5v-5.7h4.3v-2.1H132v-3.1h5.8v-2.1h-8.3v13zm58.6-1.9c-1.9 0-2.8-1.5-2.7-4.6 0-3 1-4.6 2.7-4.6 1.2 0 2 .8 2.4 1.9l2.2-.5c-.6-2.3-2-3.4-4.5-3.4-3.3 0-5.2 2.4-5.2 6.7 0 4.2 1.9 6.7 5.2 6.7 2.4 0 4.1-1.1 4.8-3.4l-2.3-.6c-.8 1.4-1.5 1.8-2.6 1.8zm-85.4-7.2c0-2.1-1.2-3.8-4.1-3.8h-5.2v13h2.5v-5.3H98l2.4 5.3h2.7l-2.9-5.8c1.7-.5 2.5-1.8 2.5-3.4zm-5.1 1.8h-1.8v-3.7h2.3c1.4 0 2.1.6 2.1 1.8 0 1.3-.6 1.9-2.6 1.9zm-10 2.6c0 2.1-.8 2.8-2.5 2.8s-2.5-.7-2.5-2.8v-8.2h-2.5v8.1c0 3.8 2.3 5 5 5 2.6 0 5-1.2 5-5v-8.1h-2.5v8.2zm32.7-1h4.4v-2.1h-4.4v-3.1h6.1v-2.1h-8.6v13h8.8v-2.1h-6.3v-3.6zm-9.9 3.8c-1.9 0-2.8-1.5-2.7-4.6 0-3 1-4.6 2.7-4.6 1.2 0 2 .8 2.4 1.9l2.2-.5c-.6-2.3-2-3.4-4.5-3.4-3.3 0-5.2 2.4-5.2 6.7 0 4.2 1.9 6.7 5.2 6.7 2.4 0 4.1-1.1 4.8-3.4l-2.3-.6c-.9 1.4-1.5 1.8-2.6 1.8z"/></svg>