<?xml version="1.0" encoding="utf-8"?>
<!-- Generator: Adobe Illustrator 19.0.0, SVG Export Plug-In . SVG Version: 6.00 Build 0)  -->
<svg version="1.1" id="Layer_1" xmlns="http://www.w3.org/2000/svg" xmlns:xlink="http://www.w3.org/1999/xlink" x="0px" y="0px"
	 width="32px" height="32px" viewBox="-11 17 32 32" enable-background="new -11 17 32 32" xml:space="preserve">
<g id="Layer_1_1_" display="none">
	<path display="inline" d="M16.6,16H-7.6c-2.43,0-4.4,1.97-4.4,4.4V35c0,2.431,1.57,5,4,5h5v8l9-8h11c2.431,0,4-2.569,4-5V20.4
		C21,17.97,19.03,16,16.6,16z M-6,22H6v2H-6V22z M-6,32h16v2H-6V32z M15,29H-6v-2h21V29z"/>
</g>
<g id="Layer_2">
	<path fill="#333333" d="M16,19H-7c-2.43,0-4,1.57-4,4v14c0,2.431,1.57,4,4,4h2v6l7-6h14c2.431,0,4-1.569,4-4V23
		C20,20.57,18.431,19,16,19z M-5,25H9v1H-5V25z M8,35H-5v-1H8V35z M5,32H-5v-1H5V32z M14,29H-5v-1h19V29z"/>
</g>
</svg>
