<?xml version="1.0" encoding="utf-8"?>
<!-- Generator: Adobe Illustrator 21.1.0, SVG Export Plug-In . SVG Version: 6.00 Build 0)  -->
<svg version="1.1" id="Layer_1" xmlns="http://www.w3.org/2000/svg" xmlns:xlink="http://www.w3.org/1999/xlink" x="0px" y="0px"
	 viewBox="0 0 24 24" style="enable-background:new 0 0 24 24;" xml:space="preserve">
<style type="text/css">
	.st0{fill:#888888;}
</style>
<path class="st0" d="M16,6h-3v1.9h3c2.3,0,4.1,1.8,4.1,4.1c0,2.3-1.8,4.1-4.1,4.1l0,0h-3V18h3c3.3,0,6-2.7,6-6C22,8.7,19.3,6,16,6
	 M3.9,12c0-2.3,1.8-4.1,4.1-4.1h3V6H8c-3.3,0-6,2.7-6,6s2.7,6,6,6h3v-1.9H8C5.7,16.1,3.9,14.3,3.9,12 M8,13h8v-2H8V13z"/>
</svg>
