<?xml version="1.0" encoding="utf-8"?>
<!-- Generator: Adobe Illustrator 19.0.0, SVG Export Plug-In . SVG Version: 6.00 Build 0)  -->
<svg version="1.1" id="Layer_1" xmlns="http://www.w3.org/2000/svg" xmlns:xlink="http://www.w3.org/1999/xlink" x="0px" y="0px"
	 width="64px" height="64px" viewBox="0 0 64 64" enable-background="new 0 0 64 64" xml:space="preserve">
<rect id="XMLID_1_" display="none" fill="#CCCACA" width="64" height="64"/>
<image display="none" overflow="visible" enable-background="new    " width="64" height="64" id="XMLID_2_" xlink:href="5FF7F180.png" >
</image>
<path id="XMLID_4_" fill="#CCCCCC" d="M32,0C14.336,0,0,14.336,0,32s14.336,32,32,32s32-14.336,32-32S49.664,0,32,0z M32,9.6
	c5.312,0,9.6,4.288,9.6,9.6s-4.288,9.6-9.6,9.6s-9.6-4.288-9.6-9.6S26.688,9.6,32,9.6z M32,55.04c-8,0-15.072-4.096-19.2-10.304
	c0.096-6.368,12.8-9.856,19.2-9.856c6.368,0,19.104,3.488,19.2,9.856C47.072,50.944,40,55.04,32,55.04z"/>
</svg>
