<?xml version="1.0" encoding="utf-8"?>
<!-- Generator: Adobe Illustrator 19.0.0, SVG Export Plug-In . SVG Version: 6.00 Build 0)  -->
<svg version="1.1" id="Layer_1" xmlns="http://www.w3.org/2000/svg" xmlns:xlink="http://www.w3.org/1999/xlink" x="0px" y="0px"
	 width="75px" height="25px" viewBox="0 0 75 25" enable-background="new 0 0 75 25" xml:space="preserve">
<g id="XMLID_1_">
	<path id="XMLID_26_" fill="#1EB06C" d="M66.764,3.15l-6.228,2.137l7.684,2.91l-2.82,7.618l5.235-2.994L74,5.886L66.764,3.15z"/>
	<g id="XMLID_2_">
		<path id="XMLID_24_" fill="#56C491" d="M2.188,19.527V8.469h2.114v9.282H9.11v1.777H2.188z"/>
		<path id="XMLID_21_" fill="#56C491" d="M10.306,10.093V8.316h1.899v1.777H10.306z M12.205,19.527h-1.899v-7.964h1.899V19.527z"/>
		<path id="XMLID_19_" fill="#56C491" d="M13.225,11.563h1.899l1.317,5.391h0.031l1.348-5.391h1.899l-2.282,7.964h-1.991
			L13.225,11.563z"/>
		<path id="XMLID_16_" fill="#56C491" d="M21.844,15.851c0.031,1.654,0.766,2.298,1.654,2.298s1.302-0.398,1.777-0.95l1.378,0.857
			c-0.735,1.134-1.807,1.624-3.339,1.624c-2.068,0-3.37-1.609-3.37-4.136s1.302-4.136,3.461-4.136
			c2.083-0.015,3.247,1.746,3.247,3.661v0.781H21.844z M24.907,14.565c-0.031-1.103-0.612-1.746-1.531-1.746
			c-0.919,0-1.501,0.643-1.532,1.746H24.907z"/>
		<path id="XMLID_12_" fill="#56C491" d="M31.724,8.469h4.105c2.206,0,3.63,0.735,3.753,2.711c0,1.149-0.475,2.037-1.685,2.512
			c1.44,0.582,1.93,1.241,1.93,2.925c0,1.715-1.21,2.91-4.028,2.91h-4.074V8.469z M33.837,12.88h2.114
			c1.011,0,1.516-0.582,1.516-1.348c0-0.766-0.505-1.348-1.516-1.348h-2.114V12.88z M33.837,17.812h2.114
			c1.225,0,1.761-0.551,1.761-1.608c0-1.057-0.536-1.609-1.761-1.609h-2.114V17.812z"/>
		<path id="XMLID_10_" fill="#56C491" d="M41.478,19.527V8.469h1.899v11.058H41.478z"/>
		<path id="XMLID_7_" fill="#56C491" d="M48.151,11.41c2.16,0,3.461,1.608,3.461,4.136s-1.302,4.136-3.461,4.136
			c-2.16,0-3.461-1.609-3.461-4.136S45.991,11.41,48.151,11.41z M48.151,12.941c-1.057,0-1.562,0.827-1.562,2.604
			s0.505,2.604,1.562,2.604c1.057,0,1.562-0.827,1.562-2.604S49.208,12.941,48.151,12.941z"/>
		<path id="XMLID_3_" fill="#56C491" d="M59.38,12.696c-0.444,0-0.934,0-1.225,0.184c0.245,0.337,0.429,0.796,0.429,1.409
			c0,1.501-1.011,2.573-3.002,2.573c-0.827,0-1.486,0.031-1.486,0.49c0,1.287,5.238-0.459,5.238,2.726
			c0,1.134-1.149,2.359-3.691,2.359c-2.144,0-3.554-0.644-3.554-1.899c0-0.996,0.75-1.47,1.44-1.47v-0.031
			c-0.368-0.23-1.179-0.429-1.179-1.286c0-0.766,0.889-1.348,1.241-1.455c-0.658-0.536-1.18-1.149-1.18-2.114
			c0-1.394,1.072-2.772,3.14-2.772c0.674,0,1.47,0.276,1.96,0.705c0.368-0.49,0.965-0.735,1.869-0.705V12.696z M53.836,20.293
			c0,0.613,0.521,0.889,2.114,0.889c1.225,0,1.639-0.613,1.639-0.889c0-0.367-0.567-0.919-2.405-0.919
			C54.142,19.375,53.836,19.956,53.836,20.293z M55.536,12.819c-0.812,0-1.378,0.582-1.378,1.317c0,0.735,0.567,1.318,1.378,1.318
			c0.72,0,1.302-0.582,1.302-1.318C56.838,13.401,56.255,12.819,55.536,12.819z"/>
	</g>
</g>
</svg>
