<?xml version="1.0" encoding="utf-8"?>
<!-- Generator: Adobe Illustrator 21.1.0, SVG Export Plug-In . SVG Version: 6.00 Build 0)  -->
<svg version="1.1" id="Layer_1" xmlns="http://www.w3.org/2000/svg" xmlns:xlink="http://www.w3.org/1999/xlink" x="0px" y="0px"
	 viewBox="0 0 9 12" style="enable-background:new 0 0 9 12;" xml:space="preserve">
<style type="text/css">
	.st0{fill:#888888;}
</style>
<path class="st0" d="M7.7,6.4C7.3,5.9,6.9,5.7,6.5,5.7V2.3c0.2,0,0.4-0.1,0.6-0.3s0.3-0.4,0.3-0.6c0-0.2-0.1-0.4-0.3-0.6
	S6.7,0.6,6.5,0.6H2.2C2,0.6,1.8,0.7,1.6,0.8S1.4,1.2,1.4,1.4c0,0.2,0.1,0.4,0.3,0.6S2,2.3,2.2,2.3v3.4C1.8,5.7,1.4,5.9,1,6.4
	C0.7,6.8,0.5,7.3,0.5,7.9c0,0.1,0,0.2,0.1,0.3c0.1,0.1,0.2,0.1,0.3,0.1h2.7l0.5,3.2c0,0.1,0.1,0.2,0.2,0.2h0c0.1,0,0.1,0,0.1-0.1
	c0,0,0.1-0.1,0.1-0.1l0.3-3.2h2.9c0.1,0,0.2,0,0.3-0.1C8.2,8.1,8.2,8,8.2,7.9C8.2,7.3,8,6.8,7.7,6.4z"/>
</svg>
