<?xml version="1.0" encoding="utf-8"?>
<!-- Generator: Adobe Illustrator 21.1.0, SVG Export Plug-In . SVG Version: 6.00 Build 0)  -->
<svg version="1.1" id="Layer_1" xmlns="http://www.w3.org/2000/svg" xmlns:xlink="http://www.w3.org/1999/xlink" x="0px" y="0px"
	 viewBox="0 0 24 24" style="enable-background:new 0 0 24 24;" xml:space="preserve">
<style type="text/css">
	.st0{fill:#888888;}
</style>
<path class="st0" d="M21,21h-4v-6.8c0-1.1-1.2-1.9-2.3-1.9S13,13.2,13,14.3V21H9V9h4v2c0.7-1.1,2.4-1.8,3.5-1.8c2.5,0,4.5,2,4.5,4.5
	V21 M7,21H3V9h4V21 M5,3c1.1,0,2,0.9,2,2S6.1,7,5,7S3,6.1,3,5S3.9,3,5,3z"/>
</svg>
