<?xml version="1.0" encoding="utf-8"?>
<!-- Generator: Adobe Illustrator 21.1.0, SVG Export Plug-In . SVG Version: 6.00 Build 0)  -->
<svg version="1.1" id="Layer_1" xmlns="http://www.w3.org/2000/svg" xmlns:xlink="http://www.w3.org/1999/xlink" x="0px" y="0px"
	 viewBox="0 0 24 24" style="enable-background:new 0 0 24 24;" xml:space="preserve">
<style type="text/css">
	.st0{fill:#FFFFFF;}
	.st1{fill:#555555;}
	.st2{fill:none;}
</style>
<g>
	<polygon class="st0" points="12,14.1 6.4,19.7 4.3,17.6 9.9,12 4.3,6.4 6.4,4.3 12,9.9 17.6,4.3 19.7,6.4 14.1,12 19.7,17.6 
		17.6,19.7 	"/>
	<path class="st1" d="M17.6,5L19,6.4L13.4,12l5.6,5.6L17.6,19L12,13.4L6.4,19L5,17.6l5.6-5.6L5,6.4L6.4,5l5.6,5.6L17.6,5 M17.6,3.6
		l-0.7,0.7L12,9.2L7.1,4.3L6.4,3.6L5.7,4.3L4.3,5.7L3.6,6.4l0.7,0.7L9.2,12l-4.9,4.9l-0.7,0.7l0.7,0.7l1.4,1.4l0.7,0.7l0.7-0.7
		l4.9-4.9l4.9,4.9l0.7,0.7l0.7-0.7l1.4-1.4l0.7-0.7l-0.7-0.7L14.8,12l4.9-4.9l0.7-0.7l-0.7-0.7l-1.4-1.4L17.6,3.6L17.6,3.6z"/>
</g>
<path class="st2" d="M0,0h24v24H0V0z"/>
</svg>
